<svg width="550" height="350" viewBox="0 0 550 350" fill="none" xmlns="http://www.w3.org/2000/svg">
<path d="M0.767512 272.335C1.30958 270.093 1.91366 267.862 2.57954 265.641L3.05848 265.784C3.71655 263.589 4.43525 261.404 5.21443 259.228L4.7437 259.059C5.51739 256.899 6.35045 254.747 7.2427 252.605L7.70427 252.797C8.58419 250.685 9.52196 248.581 10.5174 246.486L10.0658 246.271C11.052 244.196 12.0945 242.129 13.1932 240.07L13.6343 240.306C14.7062 238.297 15.8318 236.297 17.011 234.304L16.5806 234.049C17.7469 232.078 18.9653 230.115 20.2358 228.158L20.6551 228.431C21.9026 226.51 23.2006 224.596 24.549 222.689L24.1407 222.4C25.4551 220.541 26.8171 218.688 28.2266 216.842L28.624 217.146C30.0099 215.33 31.4419 213.521 32.92 211.718L32.5333 211.401C33.9854 209.629 35.4817 207.863 37.0221 206.103L37.3984 206.432C38.8951 204.722 40.4336 203.017 42.0139 201.317L41.6477 200.976C43.2127 199.293 44.8184 197.614 46.4647 195.941L46.8211 196.291C48.4139 194.672 50.0449 193.058 51.714 191.448L51.3669 191.088C53.0152 189.498 54.7006 187.913 56.4229 186.331L56.761 186.7C58.4434 185.155 60.1611 183.614 61.9141 182.078L61.5846 181.702C63.3014 180.197 65.052 178.696 66.8363 177.199L67.1577 177.582C68.9144 176.107 70.7038 174.637 72.526 173.169L72.2124 172.78C73.9865 171.351 75.7915 169.926 77.6273 168.504L77.9335 168.9C79.7513 167.491 81.5995 166.087 83.4778 164.685L83.1788 164.284C85.002 162.923 86.8535 161.566 88.7334 160.211L89.0258 160.616C90.8933 159.27 92.7889 157.927 94.7125 156.586L94.4266 156.176C96.2931 154.875 98.1858 153.577 100.105 152.281L100.385 152.696C102.292 151.408 104.226 150.122 106.185 148.839L105.911 148.421C107.817 147.173 109.747 145.927 111.702 144.683L111.971 145.105C113.91 143.871 115.873 142.639 117.861 141.41L117.597 140.984C119.541 139.782 121.507 138.582 123.496 137.384L123.754 137.812C125.718 136.629 127.704 135.447 129.713 134.268L129.459 133.837C131.439 132.674 133.439 131.514 135.462 130.355L135.71 130.789C137.693 129.653 139.697 128.519 141.721 127.386L141.477 126.95C143.492 125.822 145.527 124.696 147.583 123.572L147.822 124.011C149.819 122.919 151.835 121.828 153.871 120.739L153.635 120.298C155.671 119.208 157.727 118.12 159.803 117.033L160.035 117.476C162.055 116.417 164.094 115.36 166.151 114.305L165.922 113.86C167.966 112.811 170.028 111.763 172.108 110.716L172.332 111.163C174.388 110.128 176.462 109.095 178.553 108.063L178.331 107.614C180.379 106.603 182.444 105.593 184.525 104.585L184.743 105.034C186.823 104.026 188.92 103.019 191.034 102.013L190.819 101.561C192.881 100.58 194.958 99.5994 197.051 98.62L197.263 99.0728C199.342 98.0998 201.438 97.1276 203.549 96.1563L203.34 95.7021C205.439 94.7362 207.553 93.7712 209.683 92.807L209.889 93.2626C211.966 92.3225 214.058 91.3832 216.164 90.4446L215.96 89.9879C218.067 89.049 220.189 88.1108 222.325 87.1733L222.526 87.6312C224.63 86.7081 226.748 85.7858 228.88 84.8641L228.681 84.4051C230.782 83.4969 232.897 82.5893 235.025 81.6824L235.221 82.1423C237.349 81.2357 239.49 80.3297 241.645 79.4243L241.451 78.9633C243.562 78.0767 245.685 77.1906 247.822 76.3051L248.013 76.767C250.132 75.8889 252.264 75.0114 254.408 74.1344L254.219 73.6716C256.364 72.7943 258.522 71.9174 260.693 71.0411L260.88 71.5048C262.997 70.6502 265.127 69.7961 267.268 68.9424L267.083 68.4779C269.217 67.6273 271.363 66.7771 273.521 65.9273L273.704 66.3925C275.862 65.543 278.032 64.6938 280.214 63.845L280.032 63.379C282.159 62.5517 284.297 61.7246 286.447 60.898L286.627 61.3646C288.771 60.54 290.927 59.7157 293.094 58.8917L292.917 58.4243C295.085 57.6001 297.264 56.7761 299.455 55.9525L299.631 56.4205C301.768 55.617 303.916 54.8137 306.075 54.0107L305.901 53.5421C308.054 52.7412 310.219 51.9405 312.393 51.1401L312.566 51.6093C314.74 50.8091 316.926 50.0091 319.122 49.2093L318.95 48.7395C321.102 47.9561 323.263 47.1728 325.435 46.3897L325.604 46.8601C327.763 46.0817 329.932 45.3035 332.111 44.5255L331.943 44.0546C334.122 43.2764 336.312 42.4983 338.512 41.7204L338.678 42.1918C340.844 41.4258 343.02 40.66 345.206 39.8943L345.041 39.4224C347.203 38.6647 349.376 37.9071 351.558 37.1497L351.722 37.622C353.904 36.8647 356.095 36.1075 358.296 35.3503L358.133 34.8775C360.317 34.1261 362.511 33.3748 364.714 32.6235L364.875 33.0968C367.039 32.3587 369.213 31.6207 371.395 30.8828L371.235 30.4091C373.418 29.6711 375.61 28.933 377.811 28.195L377.97 28.6691C380.171 27.9312 382.381 27.1933 384.599 26.4555L384.442 25.981C386.61 25.2602 388.786 24.5393 390.971 23.8184L391.128 24.2932C393.31 23.5734 395.5 22.8536 397.7 22.1338L397.544 21.6586C399.744 20.9386 401.952 20.2187 404.168 19.4987L404.323 19.9742C405.431 19.6143 406.541 19.2543 407.654 18.8944C408.783 18.5289 409.911 18.1693 411.037 17.8154L410.887 17.3384C413.141 16.63 415.388 15.9446 417.628 15.2821L417.77 15.7616C420.007 15.0999 422.237 14.461 424.46 13.8448L424.326 13.3629C426.561 12.7434 428.788 12.1466 431.008 11.5724L431.134 12.0565C433.427 11.4634 435.712 10.8944 437.989 10.3492L437.872 9.86296C440.152 9.31706 442.425 8.79499 444.689 8.29645L444.796 8.78475C447.057 8.28688 449.31 7.81251 451.555 7.36137L451.457 6.87117C453.773 6.40571 456.081 5.96493 458.38 5.54852L458.469 6.04051C460.778 5.62235 463.078 5.2288 465.369 4.85956L465.289 4.36593C467.584 3.99616 469.869 3.65073 472.146 3.3293L472.216 3.8244C474.542 3.496 476.859 3.19271 479.166 2.91418L479.106 2.41778C481.441 2.13598 483.765 1.87948 486.081 1.64794L486.13 2.14546C488.442 1.91426 490.744 1.70798 493.037 1.52627L492.997 1.02784C495.338 0.842257 497.669 0.682267 499.99 0.547496L500.019 1.04666C502.362 0.910598 504.695 0.800284 507.016 0.715328L506.998 0.215662C509.324 0.130574 511.639 0.0708815 513.943 0.0361995L513.95 0.536143C516.295 0.500847 518.629 0.491496 520.952 0.507682L520.956 0.00769393C523.303 0.0240512 525.639 0.0664471 527.964 0.134463L527.949 0.634249C530.27 0.702156 532.579 0.79564 534.877 0.914284L534.903 0.414948C537.252 0.53624 539.589 0.683785 541.914 0.857138L541.876 1.35575C544.209 1.52969 546.529 1.72965 548.837 1.95518L548.886 1.45755C551.198 1.68345 553.497 1.93496 555.784 2.21164L555.724 2.70802C558.06 2.99061 560.382 3.2995 562.692 3.63419L562.764 3.13936C565.077 3.47464 567.377 3.83577 569.664 4.22227L569.581 4.71528C571.876 5.10317 574.158 5.51666 576.426 5.95525L576.521 5.46434C578.828 5.91038 581.12 6.38234 583.399 6.8797L583.292 7.3682C585.567 7.86472 587.828 8.3866 590.074 8.93333L590.192 8.44751C592.466 9.0009 594.725 9.5797 596.969 10.1834L596.84 10.6662C599.098 11.2735 601.341 11.9061 603.569 12.5633L603.71 12.0838C605.942 12.7421 608.159 13.4252 610.361 14.1325L610.208 14.6085C612.439 15.3252 614.655 16.0668 616.854 16.8327L617.019 16.3605C619.225 17.1285 621.415 17.921 623.589 18.7372L623.413 19.2053C625.594 20.0241 627.759 20.8669 629.908 21.7332L630.095 21.2695C632.267 22.1454 634.423 23.0452 636.563 23.9684L636.365 24.4275C638.5 25.3491 640.619 26.294 642.722 27.2615L642.931 26.8073C645.058 27.7862 647.167 28.7882 649.26 29.8129L649.04 30.2619C651.134 31.2876 653.212 32.336 655.271 33.4064L655.502 32.9628C657.571 34.0381 659.623 35.1357 661.656 36.2549L661.415 36.6929C663.463 37.8197 665.492 38.9684 667.504 40.1384L667.755 39.7062C669.77 40.8782 671.766 42.0715 673.745 43.2855L673.483 43.7116C675.473 44.9331 677.445 46.1756 679.398 47.4384L679.669 47.0185C681.631 48.2867 683.573 49.5753 685.496 50.8838L685.215 51.2972C687.14 52.607 689.046 53.9368 690.933 55.2857L691.224 54.879C693.127 56.2397 695.01 57.6199 696.874 59.019L696.574 59.4188C698.434 60.8156 700.275 62.2311 702.096 63.6648L702.405 63.2719C704.244 64.7193 706.061 66.1851 707.859 67.6687L707.541 68.0543C709.338 69.5377 711.115 71.0389 712.871 72.5572L713.198 72.179C714.964 73.7056 716.709 75.2494 718.433 76.8098L718.098 77.1805C719.828 78.747 721.538 80.3301 723.226 81.9292L723.57 81.5662C725.261 83.168 726.93 84.7858 728.578 86.4188L728.226 86.774C729.887 88.4199 731.526 90.0814 733.143 91.7577L733.503 91.4106C735.122 93.0895 736.719 94.7834 738.294 96.4913L737.927 96.8302C739.509 98.546 741.068 100.276 742.605 102.02L742.98 101.689C744.525 103.442 746.047 105.208 747.546 106.988L747.163 107.31C748.664 109.091 750.141 110.886 751.595 112.692L751.985 112.379C753.452 114.202 754.896 116.038 756.315 117.886L755.919 118.19C757.336 120.035 758.73 121.891 760.099 123.757L760.502 123.462C761.888 125.351 763.249 127.252 764.586 129.163L764.176 129.45C765.511 131.359 766.821 133.279 768.106 135.207L768.522 134.93C769.819 136.877 771.091 138.834 772.337 140.8L771.914 141.067C773.164 143.038 774.388 145.018 775.585 147.006L776.013 146.748C777.218 148.749 778.397 150.758 779.549 152.774L779.115 153.022C780.275 155.052 781.408 157.089 782.513 159.133L782.953 158.895C784.062 160.946 785.144 163.003 786.198 165.065L785.753 165.293C786.819 167.379 787.857 169.471 788.866 171.568L789.317 171.351C790.328 173.451 791.31 175.556 792.264 177.665L791.808 177.871C792.774 180.007 793.71 182.147 794.616 184.29L795.077 184.095C795.986 186.245 796.866 188.398 797.715 190.553L797.25 190.736C798.108 192.915 798.935 195.095 799.731 197.277L800.201 197.105C801.002 199.302 801.772 201.499 802.51 203.697L802.036 203.856C802.781 206.073 803.493 208.291 804.173 210.507L804.651 210.361C805.337 212.599 805.99 214.836 806.61 217.072L806.128 217.205C806.752 219.458 807.342 221.708 807.898 223.955L808.383 223.835C808.946 226.111 809.474 228.383 809.966 230.651L809.477 230.757C809.972 233.04 810.432 235.319 810.855 237.592L811.346 237.5C811.776 239.807 812.168 242.107 812.522 244.401L812.028 244.477C812.385 246.786 812.703 249.088 812.984 251.381L813.48 251.32C813.765 253.65 814.01 255.971 814.215 258.282L813.717 258.326C813.923 260.654 814.089 262.972 814.214 265.278L814.714 265.251C814.841 267.594 814.926 269.925 814.968 272.243L814.468 272.252C814.489 273.408 814.5 274.56 814.5 275.709C814.5 276.872 814.488 278.033 814.463 279.191L814.963 279.202C814.914 281.526 814.816 283.844 814.67 286.153L814.171 286.121C814.025 288.433 813.831 290.737 813.588 293.032L814.085 293.085C813.842 295.393 813.549 297.694 813.21 299.986L812.715 299.912C812.376 302.2 811.989 304.48 811.556 306.75L812.047 306.844C811.612 309.122 811.129 311.391 810.6 313.651L810.113 313.537C809.587 315.785 809.014 318.024 808.396 320.254L808.878 320.387C808.258 322.622 807.593 324.846 806.883 327.061L806.407 326.908C805.703 329.103 804.954 331.287 804.162 333.462L804.632 333.633C803.838 335.812 803 337.98 802.119 340.137L801.656 339.948C800.786 342.078 799.874 344.198 798.92 346.306L799.376 346.512C798.421 348.624 797.424 350.724 796.386 352.813L795.938 352.591C794.915 354.65 793.852 356.698 792.749 358.735L793.189 358.973C792.086 361.01 790.944 363.035 789.763 365.049L789.331 364.796C788.169 366.779 786.969 368.75 785.731 370.709L786.154 370.976C784.917 372.934 783.643 374.88 782.333 376.814L781.919 376.534C780.63 378.435 779.307 380.325 777.948 382.203L778.353 382.496C776.995 384.373 775.603 386.238 774.176 388.09L773.78 387.785C772.379 389.604 770.945 391.411 769.478 393.205L769.866 393.522C768.399 395.316 766.9 397.099 765.369 398.869L764.991 398.542C763.49 400.277 761.958 401.999 760.396 403.71L760.765 404.047C759.2 405.76 757.605 407.462 755.98 409.15L755.62 408.803C754.03 410.454 752.412 412.093 750.766 413.719L751.118 414.075C749.469 415.704 747.791 417.321 746.086 418.925L745.743 418.561C744.072 420.133 742.373 421.693 740.649 423.24L740.983 423.612C739.26 425.158 737.511 426.691 735.736 428.212L735.41 427.832C733.664 429.328 731.892 430.812 730.095 432.283L730.412 432.67C728.625 434.134 726.813 435.585 724.977 437.024L724.669 436.63C722.853 438.053 721.014 439.463 719.152 440.86L719.452 441.26C717.608 442.644 715.742 444.015 713.854 445.373L713.562 444.967C711.682 446.319 709.781 447.658 707.858 448.984L708.142 449.396C706.249 450.701 704.336 451.994 702.401 453.274L702.125 452.857C700.193 454.136 698.241 455.402 696.268 456.656L696.536 457.078C694.594 458.311 692.633 459.532 690.653 460.741L690.392 460.314C688.42 461.517 686.429 462.708 684.419 463.886L684.672 464.317C682.678 465.486 680.666 466.642 678.636 467.785L678.391 467.349C676.384 468.479 674.36 469.597 672.318 470.702L672.556 471.142C670.513 472.247 668.454 473.34 666.376 474.42L666.146 473.976C664.109 475.035 662.056 476.082 659.986 477.116L660.21 477.563C658.138 478.599 656.049 479.622 653.945 480.632L653.729 480.182C651.65 481.18 649.555 482.166 647.445 483.139L647.654 483.593C645.559 484.56 643.448 485.515 641.322 486.457L641.119 486C638.998 486.939 636.863 487.867 634.712 488.781L634.908 489.242C632.792 490.142 630.661 491.03 628.517 491.905L628.328 491.443C626.186 492.317 624.03 493.18 621.861 494.03L622.043 494.495C619.891 495.338 617.725 496.169 615.546 496.988L615.37 496.52C613.212 497.33 611.042 498.128 608.858 498.914L609.028 499.385C606.842 500.171 604.644 500.946 602.434 501.707L602.271 501.235C600.096 501.984 597.909 502.721 595.71 503.446L595.867 503.921C593.67 504.646 591.461 505.358 589.241 506.057L589.091 505.581C586.881 506.277 584.66 506.961 582.428 507.632L582.572 508.111C580.366 508.775 578.148 509.427 575.92 510.066L575.782 509.585C573.556 510.224 571.319 510.851 569.072 511.465L569.204 511.947C566.973 512.557 564.733 513.154 562.482 513.739L562.356 513.255C560.124 513.835 557.881 514.403 555.629 514.958L555.749 515.444C553.494 516 551.23 516.544 548.957 517.075L548.843 516.588C546.599 517.113 544.345 517.625 542.083 518.125L542.191 518.613C539.933 519.113 537.666 519.599 535.39 520.074L535.288 519.584C533.015 520.058 530.733 520.52 528.442 520.969L528.539 521.46C526.279 521.903 524.01 522.334 521.733 522.753L521.643 522.262C519.368 522.68 517.085 523.087 514.794 523.481L514.878 523.974C512.592 524.367 510.297 524.748 507.994 525.117L507.915 524.623C505.641 524.987 503.358 525.34 501.068 525.68L501.142 526.174C498.85 526.515 496.55 526.843 494.244 527.158L494.176 526.663C491.882 526.977 489.58 527.279 487.271 527.568L487.334 528.065C485.044 528.352 482.747 528.627 480.444 528.89L480.387 528.393C478.086 528.655 475.777 528.906 473.463 529.144L473.514 529.641C471.21 529.878 468.9 530.103 466.583 530.315L466.538 529.817C464.24 530.028 461.936 530.227 459.626 530.413L459.667 530.911C457.355 531.098 455.037 531.272 452.714 531.434L452.679 530.935C450.371 531.096 448.058 531.245 445.739 531.381L445.768 531.88C443.462 532.016 441.151 532.139 438.834 532.251L438.81 531.751C436.495 531.862 434.174 531.961 431.848 532.048L431.867 532.548C429.554 532.634 427.236 532.708 424.912 532.769L424.899 532.27C422.591 532.331 420.279 532.38 417.961 532.417L417.969 532.917C415.65 532.954 413.325 532.978 410.997 532.991L410.994 532.491C409.831 532.497 408.666 532.5 407.5 532.5C406.334 532.5 405.169 532.497 404.005 532.491L404.003 532.991C401.674 532.978 399.35 532.954 397.031 532.917L397.039 532.417C394.721 532.38 392.408 532.331 390.1 532.27L390.087 532.769C387.764 532.708 385.446 532.634 383.132 532.548L383.151 532.048C380.825 531.961 378.505 531.862 376.19 531.751L376.166 532.251C373.849 532.139 371.537 532.016 369.231 531.88L369.261 531.381C366.942 531.245 364.628 531.096 362.321 530.935L362.286 531.434C359.962 531.272 357.645 531.098 355.333 530.911L355.373 530.413C353.063 530.227 350.76 530.028 348.462 529.817L348.416 530.315C346.1 530.103 343.79 529.878 341.486 529.641L341.537 529.144C339.222 528.906 336.914 528.655 334.612 528.393L334.556 528.89C332.252 528.627 329.956 528.352 327.666 528.064L327.728 527.568C325.42 527.279 323.118 526.977 320.824 526.663L320.756 527.158C318.449 526.843 316.15 526.515 313.858 526.174L313.932 525.68C311.642 525.34 309.359 524.987 307.084 524.623L307.005 525.117C304.703 524.748 302.408 524.367 300.121 523.974L300.206 523.481C297.915 523.087 295.632 522.68 293.357 522.262L293.266 522.753C290.99 522.334 288.721 521.903 286.461 521.46L286.557 520.969C284.267 520.52 281.985 520.058 279.712 519.584L279.61 520.074C277.334 519.599 275.067 519.112 272.809 518.613L272.917 518.125C270.655 517.625 268.401 517.113 266.157 516.588L266.043 517.075C263.77 516.544 261.505 516 259.251 515.444L259.371 514.958C257.119 514.403 254.876 513.835 252.644 513.255L252.518 513.738C250.267 513.154 248.027 512.556 245.796 511.947L245.928 511.465C243.681 510.851 241.444 510.224 239.218 509.585L239.08 510.066C236.852 509.427 234.634 508.775 232.428 508.111L232.572 507.632C230.34 506.961 228.119 506.277 225.909 505.581L225.759 506.057C223.539 505.358 221.33 504.646 219.133 503.921L219.29 503.446C217.091 502.721 214.904 501.984 212.729 501.235L212.566 501.707C210.356 500.946 208.158 500.171 205.972 499.385L206.142 498.914C203.958 498.128 201.788 497.33 199.63 496.52L199.454 496.988C197.275 496.169 195.109 495.338 192.957 494.495L193.139 494.03C190.97 493.18 188.814 492.317 186.672 491.443L186.483 491.905C184.339 491.03 182.208 490.142 180.092 489.242L180.288 488.781C178.137 487.867 176.002 486.939 173.881 485.999L173.678 486.457C171.552 485.515 169.441 484.56 167.346 483.593L167.555 483.139C165.445 482.166 163.35 481.18 161.271 480.182L161.055 480.632C158.951 479.622 156.862 478.599 154.79 477.563L155.014 477.116C152.944 476.082 150.891 475.035 148.854 473.976L148.624 474.42C146.546 473.34 144.487 472.247 142.444 471.142L142.682 470.702C140.64 469.597 138.616 468.479 136.609 467.349L136.364 467.785C134.334 466.642 132.322 465.486 130.328 464.317L130.581 463.886C128.571 462.708 126.58 461.517 124.608 460.314L124.347 460.741C122.367 459.532 120.406 458.311 118.464 457.078L118.732 456.656C116.759 455.402 114.807 454.136 112.875 452.857L112.599 453.274C110.664 451.994 108.75 450.701 106.858 449.395L107.142 448.984C105.219 447.658 103.317 446.319 101.438 444.967L101.146 445.373C99.2579 444.015 97.3916 442.644 95.5479 441.26L95.848 440.86C93.9857 439.463 92.1465 438.053 90.3309 436.63L90.0226 437.023C88.1868 435.585 86.3751 434.134 84.5878 432.67L84.9046 432.283C83.108 430.812 81.3362 429.328 79.5894 427.832L79.2642 428.212C77.4892 426.691 75.7401 425.158 74.0173 423.612L74.3512 423.24C72.6264 421.693 70.928 420.133 69.2565 418.56L68.9139 418.925C67.2087 417.321 65.5313 415.704 63.8822 414.075L64.2336 413.719C62.5875 412.093 60.9696 410.454 59.3804 408.803L59.0201 409.15C57.3949 407.461 55.7997 405.76 54.2348 404.047L54.604 403.71C53.0419 401.999 51.5102 400.276 50.0093 398.542L49.6312 398.869C48.1001 397.099 46.6009 395.316 45.1342 393.521L45.5214 393.205C44.0548 391.41 42.6208 389.604 41.2198 387.785L40.8237 388.09C39.3971 386.238 38.0047 384.373 36.6469 382.496L37.052 382.203C35.6933 380.325 34.3695 378.435 33.0811 376.533L32.6671 376.814C31.3568 374.88 30.083 372.934 28.8461 370.976L29.2689 370.708C28.0313 368.749 26.831 366.778 25.6684 364.796L25.2371 365.049C24.0561 363.035 22.9139 361.01 21.811 358.973L22.2507 358.734C21.1481 356.698 20.0849 354.65 19.0618 352.591L18.6141 352.813C17.5761 350.724 16.5793 348.624 15.6241 346.512L16.0796 346.306C15.1258 344.197 14.2136 342.078 13.3437 339.948L12.8808 340.137C11.9999 337.979 11.1621 335.811 10.3682 333.632L10.838 333.461C10.0458 331.287 9.29731 329.102 8.59324 326.908L8.11714 327.06C7.40679 324.846 6.74148 322.621 6.12184 320.387L6.60366 320.253C5.98552 318.024 5.41298 315.785 4.88665 313.537L4.39981 313.651C3.87086 311.391 3.38844 309.122 2.95317 306.843L3.44429 306.75C3.01058 304.479 2.62384 302.2 2.28471 299.912L1.79011 299.985C1.45043 297.693 1.15835 295.393 0.914514 293.084L1.41175 293.032C1.16931 290.736 0.974709 288.432 0.828554 286.121L0.329551 286.152C0.183547 283.843 0.085748 281.526 0.0367712 279.201L0.53666 279.191C0.512615 278.05 0.500373 276.907 0.500009 275.762C0.736148 274.656 0.987318 273.553 1.2535 272.452L0.767512 272.335Z" fill="#411C5F" fill-opacity="0.65" stroke="black" stroke-dasharray="7 7"/>
</svg>
