<svg width="1060" height="359" viewBox="0 0 1060 359" fill="none" xmlns="http://www.w3.org/2000/svg">
<path d="M20.9031 -79.7733L20.8667 -79.7718L20.8305 -79.7756L20.8298 -79.7757L20.8275 -79.7759L20.8176 -79.7769L20.7777 -79.781C20.7466 -79.7842 20.7017 -79.7887 20.6434 -79.7945C20.6351 -79.7953 20.6265 -79.7961 20.6176 -79.797C20.4755 -79.811 20.2633 -79.8314 19.9838 -79.8568C19.4247 -79.9079 18.5962 -79.9794 17.521 -80.0614L17.5591 -80.56C15.8518 -80.6902 13.5251 -80.8465 10.6688 -80.9887L10.6439 -80.4893C8.59911 -80.5912 6.28217 -80.6858 3.72618 -80.7583L3.74037 -81.2581C1.57886 -81.3195 -0.75325 -81.3651 -3.23599 -81.386L-3.2402 -80.886C-5.45708 -80.9047 -7.79425 -80.9036 -10.2375 -80.8765L-10.2431 -81.3765C-12.4386 -81.3521 -14.7196 -81.3066 -17.0759 -81.2356L-17.0608 -80.7358C-19.3024 -80.6682 -21.6122 -80.5773 -23.9813 -80.4592L-24.0062 -80.9586C-26.2883 -80.8448 -28.6254 -80.7058 -31.0095 -80.538L-30.9744 -80.0392C-33.209 -79.8819 -35.4848 -79.6993 -37.7955 -79.4884L-37.8409 -79.9864C-40.1172 -79.7787 -42.4272 -79.5435 -44.7647 -79.2782L-44.7083 -78.7814C-46.9719 -78.5245 -49.2612 -78.2392 -51.5706 -77.923L-51.6384 -78.4184C-53.9044 -78.1082 -56.1898 -77.7683 -58.4891 -77.3963L-58.4093 -76.9027C-60.6759 -76.536 -62.9561 -76.138 -65.2446 -75.7066L-65.3373 -76.1979C-67.5893 -75.7733 -69.8496 -75.3163 -72.1132 -74.8247L-72.0071 -74.3361C-74.2578 -73.8472 -76.5117 -73.3241 -78.7638 -72.7646L-78.8844 -73.2499C-81.1156 -72.6956 -83.3454 -72.1056 -85.569 -71.4778L-85.4332 -70.9966C-87.6502 -70.3706 -89.8609 -69.7071 -92.0606 -69.0039L-92.2128 -69.4802C-94.4114 -68.7773 -96.5993 -68.0349 -98.7718 -67.2508L-98.602 -66.7805C-100.77 -65.998 -102.923 -65.174 -105.055 -64.3065L-105.243 -64.7696C-107.385 -63.898 -109.507 -62.9826 -111.605 -62.0211L-111.396 -61.5665C-113.493 -60.6056 -115.564 -59.5986 -117.605 -58.5437L-117.835 -58.9879C-119.89 -57.9258 -121.915 -56.815 -123.906 -55.6534L-123.654 -55.2216C-125.645 -54.06 -127.601 -52.8477 -129.517 -51.5824L-129.793 -51.9997C-131.722 -50.7261 -133.611 -49.399 -135.456 -48.0161L-135.156 -47.6161C-136.996 -46.2366 -138.792 -44.8016 -140.538 -43.3091L-140.862 -43.6891C-142.618 -42.1886 -144.323 -40.6298 -145.974 -39.0107L-145.624 -38.6537C-147.258 -37.0518 -148.838 -35.3907 -150.359 -33.6684L-150.734 -33.9994C-152.259 -32.2725 -153.726 -30.4841 -155.13 -28.632L-154.732 -28.33C-156.105 -26.5186 -157.417 -24.646 -158.665 -22.7103L-159.085 -22.9811C-160.328 -21.0528 -161.506 -19.062 -162.616 -17.0069L-162.176 -16.7693C-163.25 -14.7802 -164.259 -12.7304 -165.2 -10.6181L-165.657 -10.8216C-166.587 -8.73459 -167.45 -6.58694 -168.242 -4.37701L-167.771 -4.20822C-168.53 -2.09219 -169.224 0.081543 -169.85 2.31451L-170.331 2.17963C-170.948 4.38058 -171.498 6.63858 -171.979 8.95499L-171.49 9.05667C-171.943 11.2397 -172.335 13.4751 -172.662 15.7644L-173.157 15.6936C-173.484 17.9808 -173.746 20.3211 -173.942 22.7156L-173.444 22.7563C-173.623 24.9487 -173.746 27.1871 -173.81 29.4725L-174.31 29.4585C-174.375 31.7526 -174.381 34.0935 -174.326 36.4822L-173.826 36.4708C-173.775 38.7037 -173.671 40.9789 -173.511 43.2971L-174.01 43.3314C-173.856 45.5735 -173.65 47.8554 -173.392 50.1778L-172.895 50.1225C-172.637 52.438 -172.327 54.7942 -171.963 57.1918L-172.457 57.2669C-172.128 59.4319 -171.755 61.6303 -171.336 63.8626L-170.845 63.7705C-170.428 65.9917 -169.967 68.2467 -169.459 70.5361L-169.948 70.6443C-169.439 72.9376 -168.885 75.2651 -168.283 77.6272L-167.799 77.5038C-167.261 79.6161 -166.685 81.7563 -166.071 83.9248L-166.552 84.0611C-165.936 86.2338 -165.282 88.4348 -164.588 90.6642L-164.11 90.5157C-163.418 92.7412 -162.686 94.9954 -161.913 97.2786L-162.387 97.4388C-161.669 99.5612 -160.916 101.708 -160.128 103.881L-159.658 103.71C-158.899 105.803 -158.107 107.919 -157.282 110.058L-157.748 110.238C-156.922 112.381 -156.062 114.548 -155.167 116.738L-154.705 116.549C-153.812 118.737 -152.885 120.948 -151.923 123.184L-152.382 123.382C-151.517 125.394 -150.624 127.425 -149.703 129.476L-149.246 129.271C-148.328 131.315 -147.382 133.378 -146.406 135.461L-146.859 135.673C-145.883 137.759 -144.878 139.864 -143.844 141.99L-143.394 141.771C-142.362 143.895 -141.299 146.038 -140.208 148.202L-140.654 148.427C-139.655 150.408 -138.631 152.405 -137.582 154.42L-137.139 154.189C-136.109 156.167 -135.055 158.162 -133.976 160.173L-134.417 160.41C-133.337 162.423 -132.234 164.452 -131.105 166.499L-130.667 166.257C-129.54 168.302 -128.387 170.363 -127.21 172.442L-127.645 172.688C-126.494 174.718 -125.32 176.765 -124.122 178.828L-123.689 178.577C-122.583 180.481 -121.457 182.398 -120.309 184.33L-120.739 184.585C-119.591 186.519 -118.421 188.466 -117.231 190.427L-116.804 190.167C-115.614 192.127 -114.404 194.101 -113.172 196.089L-113.597 196.352C-112.365 198.341 -111.111 200.345 -109.836 202.362L-109.413 202.095C-108.155 204.085 -106.877 206.088 -105.577 208.106L-105.997 208.377C-104.805 210.228 -103.594 212.091 -102.366 213.966L-101.948 213.692C-100.72 215.566 -99.4744 217.451 -98.2107 219.349L-98.6269 219.626C-97.3625 221.524 -96.0799 223.435 -94.7792 225.357L-94.3651 225.077C-93.0649 226.998 -91.7466 228.932 -90.4097 230.877L-90.8218 231.16C-89.4843 233.107 -88.1284 235.065 -86.7539 237.035L-86.3438 236.749C-85.6569 237.734 -84.9653 238.722 -84.269 239.713C-83.5613 240.72 -82.8541 241.719 -82.1475 242.712L-82.5548 243.002C-81.14 244.988 -79.7276 246.945 -78.3175 248.872L-77.914 248.576C-76.5051 250.502 -75.0986 252.397 -73.6944 254.263L-74.0939 254.564C-72.6884 256.432 -71.2851 258.27 -69.884 260.08L-69.4887 259.774C-68.0891 261.581 -66.6918 263.36 -65.2967 265.11L-65.6877 265.421C-64.2911 267.173 -62.8968 268.896 -61.5047 270.591L-61.1184 270.273C-59.5615 272.168 -58.0074 274.028 -56.4562 275.852L-56.8371 276.176C-55.2763 278.011 -53.7182 279.811 -52.1629 281.576L-51.7878 281.246C-50.2344 283.008 -48.6839 284.736 -47.136 286.429L-47.505 286.766C-45.9551 288.462 -44.4078 290.122 -42.8632 291.749L-42.5006 291.405C-40.9528 293.035 -39.4077 294.63 -37.8653 296.192L-38.2211 296.543C-36.4925 298.293 -34.7673 300 -33.0452 301.666L-32.6976 301.307C-30.9783 302.97 -29.2624 304.591 -27.5497 306.171L-27.8888 306.538C-26.1731 308.121 -24.4607 309.662 -22.7514 311.163L-22.4215 310.787C-20.7153 312.285 -19.0123 313.743 -17.3125 315.16L-17.6328 315.544C-15.8034 317.07 -13.9775 318.55 -12.1552 319.984L-11.8459 319.591C-9.95679 321.078 -8.07153 322.516 -6.19009 323.906L-6.48721 324.308C-4.60161 325.701 -2.7197 327.047 -0.841385 328.345L-0.557098 327.933C1.3168 329.229 3.18697 330.477 5.05345 331.679L4.78276 332.099C6.78951 333.391 8.79216 334.63 10.7908 335.817L11.0462 335.387C13.0953 336.604 15.14 337.767 17.1806 338.875L16.9419 339.314C18.9881 340.426 21.0302 341.484 23.0682 342.489L23.2894 342.04C25.3449 343.054 27.3963 344.014 29.4434 344.922L29.2408 345.379C31.438 346.353 33.6307 347.267 35.8189 348.122L36.0009 347.657C38.1821 348.509 40.3587 349.303 42.5309 350.04L42.3702 350.514C44.5496 351.253 46.7246 351.935 48.8954 352.562L49.034 352.082C51.302 352.736 53.5653 353.33 55.824 353.865L55.7088 354.351C57.9947 354.892 60.276 355.373 62.5528 355.794L62.6439 355.303C64.9127 355.723 67.177 356.085 69.437 356.39L69.3701 356.886C71.689 357.199 74.0034 357.453 76.3134 357.649L76.3557 357.151C78.6765 357.348 80.993 357.486 83.3052 357.569L83.2874 358.069C85.6078 358.151 87.9238 358.178 90.2358 358.149L90.2297 357.649C92.5456 357.621 94.8575 357.538 97.1655 357.401L97.1949 357.901C99.5156 357.764 101.832 357.573 104.145 357.331L104.093 356.834C106.398 356.593 108.7 356.301 110.999 355.96L111.072 356.454C113.361 356.114 115.645 355.726 117.927 355.29L117.833 354.799C120.101 354.366 122.365 353.887 124.627 353.364L124.74 353.851C127.007 353.326 129.271 352.757 131.533 352.145L131.402 351.662C133.625 351.061 135.846 350.418 138.064 349.736L138.211 350.213C140.418 349.534 142.622 348.816 144.824 348.061L144.661 347.588C146.858 346.835 149.052 346.045 151.244 345.219L151.42 345.687C153.584 344.872 155.745 344.023 157.903 343.141L157.714 342.678C159.844 341.808 161.971 340.907 164.097 339.975L164.298 340.433C166.427 339.499 168.554 338.536 170.679 337.544L170.468 337.091C172.567 336.111 174.665 335.103 176.761 334.069L176.983 334.518C179.047 333.5 181.109 332.456 183.17 331.389L182.94 330.945C184.998 329.879 187.054 328.789 189.109 327.678L189.347 328.117C191.399 327.007 193.449 325.875 195.498 324.722L195.253 324.286C197.255 323.16 199.255 322.014 201.255 320.849L201.507 321.281C203.508 320.116 205.509 318.932 207.508 317.731L207.251 317.302C209.248 316.103 211.245 314.886 213.241 313.654L213.503 314.08C215.47 312.866 217.436 311.637 219.401 310.394L219.134 309.971C221.088 308.736 223.041 307.487 224.994 306.226L225.265 306.646C227.219 305.384 229.172 304.11 231.125 302.825L230.85 302.407C232.792 301.129 234.734 299.841 236.675 298.543L236.953 298.959C238.876 297.673 240.799 296.378 242.721 295.075L242.441 294.661C244.362 293.359 246.284 292.048 248.205 290.732L248.488 291.144C250.409 289.827 252.331 288.503 254.252 287.174L253.968 286.763C255.875 285.444 257.782 284.119 259.689 282.791L259.975 283.201C261.881 281.874 263.786 280.543 265.692 279.209L265.405 278.799C267.31 277.466 269.215 276.13 271.121 274.792L271.408 275.201C273.212 273.935 275.015 272.668 276.819 271.401C276.92 271.33 277.021 271.259 277.123 271.188L276.835 270.779C278.738 269.441 280.642 268.104 282.546 266.768L282.833 267.177C284.737 265.841 286.641 264.506 288.546 263.173L288.259 262.764C290.164 261.431 292.069 260.101 293.975 258.774L294.261 259.184C296.175 257.852 298.09 256.523 300.005 255.199L299.721 254.788C301.638 253.463 303.556 252.143 305.475 250.829L305.758 251.241C307.676 249.928 309.595 248.621 311.515 247.321L311.234 246.907C313.163 245.601 315.093 244.303 317.024 243.013L317.302 243.429C319.246 242.131 321.192 240.841 323.138 239.562L322.863 239.145C324.811 237.865 326.759 236.596 328.709 235.338L328.98 235.758C330.929 234.501 332.879 233.256 334.829 232.024L334.563 231.601C336.547 230.348 338.533 229.108 340.521 227.883L340.783 228.309C342.771 227.083 344.761 225.872 346.753 224.678L346.496 224.249C348.489 223.054 350.484 221.874 352.48 220.713L352.732 221.145C354.751 219.97 356.772 218.814 358.794 217.677L358.549 217.241C360.595 216.091 362.642 214.961 364.692 213.852L364.929 214.292C366.977 213.185 369.026 212.099 371.077 211.036L370.847 210.592C372.913 209.522 374.981 208.474 377.052 207.452L377.273 207.9C379.381 206.859 381.492 205.844 383.604 204.856L383.393 204.403C385.509 203.413 387.627 202.451 389.749 201.517L389.95 201.975C392.068 201.043 394.189 200.14 396.313 199.268L396.123 198.805C398.304 197.909 400.489 197.045 402.677 196.214L402.855 196.682C405.038 195.853 407.225 195.058 409.414 194.299L409.251 193.827C411.445 193.066 413.643 192.341 415.844 191.653L415.993 192.13C418.23 191.431 420.47 190.771 422.714 190.151L422.581 189.67C424.837 189.047 427.097 188.464 429.36 187.925L429.476 188.411C431.734 187.873 433.995 187.378 436.261 186.927L436.163 186.437C438.456 185.981 440.753 185.57 443.054 185.207L443.132 185.7C445.432 185.337 447.736 185.021 450.045 184.755L449.988 184.258C452.304 183.991 454.624 183.774 456.949 183.607L456.984 184.106C459.295 183.941 461.61 183.827 463.93 183.766L463.917 183.266C466.242 183.205 468.571 183.196 470.905 183.243L470.895 183.743C473.222 183.79 475.553 183.891 477.889 184.049L477.923 183.55C480.227 183.706 482.536 183.916 484.85 184.184L484.793 184.68C487.08 184.945 489.372 185.264 491.669 185.642L491.75 185.148C494.055 185.527 496.364 185.963 498.679 186.458L498.574 186.947C500.82 187.428 503.071 187.965 505.327 188.559L505.454 188.076C507.666 188.659 509.882 189.297 512.104 189.992L511.954 190.469C514.168 191.162 516.387 191.911 518.611 192.719L518.782 192.249C520.973 193.044 523.169 193.896 525.37 194.806L525.179 195.268C527.255 196.126 529.336 197.035 531.421 197.998L531.63 197.544C533.721 198.509 535.816 199.526 537.916 200.598L537.689 201.044C539.783 202.112 541.881 203.235 543.984 204.413L544.229 203.977C546.206 205.084 548.187 206.24 550.173 207.446L549.913 207.873C551.839 209.043 553.769 210.259 555.702 211.523L555.976 211.104C557.914 212.371 559.856 213.685 561.802 215.049L561.515 215.458C563.457 216.818 565.403 218.227 567.353 219.686L567.652 219.285C569.446 220.626 571.243 222.01 573.043 223.435L572.733 223.827C574.494 225.222 576.259 226.657 578.028 228.134L578.348 227.751C580.12 229.23 581.895 230.752 583.673 232.315L583.343 232.69C585.119 234.251 586.898 235.854 588.68 237.499L589.019 237.132C589.912 237.956 590.806 238.791 591.7 239.637C592.582 240.47 593.463 241.294 594.344 242.107L594.005 242.475C595.77 244.104 597.533 245.694 599.295 247.244L599.625 246.869C601.384 248.416 603.141 249.924 604.897 251.393L604.576 251.776C606.335 253.248 608.092 254.68 609.848 256.074L610.159 255.683C611.934 257.092 613.708 258.463 615.48 259.794L615.18 260.194C617.11 261.644 619.038 263.047 620.964 264.405L621.252 263.997C623.174 265.352 625.094 266.662 627.011 267.927L626.735 268.344C628.657 269.612 630.576 270.834 632.493 272.013L632.755 271.587C634.696 272.78 636.634 273.928 638.57 275.031L638.322 275.465C640.406 276.652 642.486 277.788 644.564 278.872L644.795 278.429C646.867 279.51 648.936 280.541 651.002 281.521L650.788 281.973C652.859 282.956 654.927 283.889 656.992 284.773L657.189 284.314C659.327 285.229 661.461 286.091 663.591 286.901L663.414 287.368C665.621 288.207 667.825 288.991 670.025 289.72L670.182 289.245C672.375 289.972 674.563 290.644 676.747 291.262L676.611 291.744C678.818 292.368 681.02 292.939 683.218 293.456L683.332 292.969C685.619 293.508 687.902 293.988 690.179 294.412L690.088 294.903C692.373 295.328 694.653 295.696 696.928 296.008L696.996 295.513C699.264 295.824 701.526 296.08 703.782 296.281L703.738 296.779C706.062 296.986 708.38 297.136 710.692 297.23L710.712 296.73C713.022 296.824 715.326 296.861 717.625 296.844L717.629 297.343C719.935 297.326 722.235 297.253 724.529 297.126L724.502 296.627C726.802 296.5 729.095 296.319 731.383 296.085L731.433 296.582C733.732 296.347 736.025 296.058 738.311 295.717L738.237 295.223C740.515 294.883 742.787 294.492 745.052 294.05L745.148 294.541C747.406 294.1 749.658 293.609 751.902 293.07L751.785 292.584C754.016 292.048 756.24 291.464 758.457 290.832L758.594 291.313C760.817 290.68 763.033 289.999 765.242 289.273L765.086 288.798C767.265 288.082 769.437 287.321 771.602 286.516L771.776 286.985C773.924 286.186 776.066 285.345 778.2 284.462L778.008 284C780.137 283.12 782.258 282.198 784.372 281.236L784.579 281.691C786.68 280.735 788.774 279.739 790.86 278.704L790.638 278.257C792.679 277.244 794.713 276.196 796.74 275.111L796.976 275.552C799.007 274.465 801.031 273.342 803.047 272.184L802.798 271.75C804.809 270.595 806.813 269.406 808.81 268.182L809.071 268.609C811.011 267.42 812.945 266.199 814.87 264.948L814.598 264.528C816.52 263.28 818.435 262 820.342 260.691L820.625 261.103C822.536 259.792 824.439 258.451 826.334 257.082L826.041 256.677C827.899 255.334 829.75 253.964 831.594 252.567L831.896 252.965C833.72 251.583 835.537 250.175 837.346 248.742L837.036 248.35C838.842 246.919 840.641 245.463 842.433 243.982L842.751 244.368C844.54 242.889 846.322 241.387 848.096 239.862L847.77 239.483C849.498 237.997 851.219 236.489 852.932 234.96L853.265 235.333C854.981 233.802 856.689 232.25 858.389 230.677L858.05 230.31C859.748 228.74 861.438 227.149 863.121 225.54L863.467 225.901C865.133 224.307 866.791 222.695 868.442 221.064L868.09 220.709C869.719 219.099 871.341 217.472 872.955 215.828L873.312 216.178C874.928 214.532 876.536 212.87 878.136 211.191L877.775 210.846C879.373 209.169 880.964 207.476 882.547 205.768L882.914 206.108C884.476 204.422 886.03 202.722 887.577 201.008L887.206 200.673C888.745 198.966 890.277 197.246 891.801 195.512L892.177 195.842C893.702 194.107 895.219 192.359 896.729 190.598L896.349 190.272C897.857 188.514 899.356 186.743 900.848 184.961L901.231 185.282C902.707 183.519 904.174 181.744 905.634 179.959L905.247 179.642C906.705 177.858 908.156 176.064 909.598 174.259L909.989 174.572C911.432 172.766 912.868 170.95 914.295 169.125L913.901 168.817C915.325 166.996 916.741 165.166 918.149 163.328L918.546 163.632C919.949 161.8 921.343 159.96 922.729 158.112L922.329 157.812C923.714 155.965 925.091 154.111 926.46 152.25L926.863 152.546C928.232 150.684 929.593 148.815 930.945 146.94L930.54 146.647C931.892 144.772 933.236 142.891 934.571 141.005L934.979 141.293C936.315 139.404 937.643 137.51 938.963 135.611L938.552 135.326C939.87 133.428 941.18 131.525 942.481 129.619L942.894 129.9C944.195 127.992 945.488 126.081 946.772 124.165L946.357 123.887C947.646 121.963 948.927 120.036 950.198 118.107L950.616 118.382C951.892 116.445 953.159 114.505 954.416 112.564L953.997 112.292C955.254 110.352 956.501 108.409 957.74 106.466L958.161 106.735C959.4 104.79 960.63 102.844 961.85 100.898L961.426 100.633C962.661 98.6623 963.887 96.6912 965.103 94.7204L965.528 94.983C966.748 93.0055 967.958 91.0284 969.158 89.0525L968.731 88.7929C969.93 86.818 971.119 84.8441 972.298 82.8722L972.727 83.1288C973.91 81.1514 975.082 79.176 976.244 77.2033L975.813 76.9496C977 74.9336 978.176 72.9204 979.342 70.9108L979.775 71.1617C980.941 69.1512 982.096 67.1444 983.24 65.142L982.806 64.894C983.949 62.8925 985.082 60.8956 986.203 58.904L986.639 59.1493C987.778 57.1258 988.906 55.1079 990.022 53.0963L989.585 52.8537C990.721 50.8058 991.846 48.7646 992.958 46.7308L993.396 46.9707C994.509 44.936 995.609 42.9089 996.697 40.8903L996.257 40.653C997.345 38.6352 998.42 36.6259 999.483 34.6259L999.924 34.8605C1001.03 32.7752 1002.13 30.7001 1003.21 28.6362L1002.76 28.4042C1003.85 26.3354 1004.92 24.2778 1005.97 22.2326L1006.42 22.4619C1007.47 20.4159 1008.52 18.3822 1009.54 16.3618L1009.1 16.1351C1010.16 14.0491 1011.21 11.9774 1012.24 9.9212L1012.69 10.1454C1013.74 8.03876 1014.78 5.94836 1015.81 3.87546L1015.36 3.6539C1016.38 1.58185 1017.39 -0.472748 1018.38 -2.50861L1018.83 -2.28964C1019.85 -4.38403 1020.86 -6.45862 1021.84 -8.51205L1021.39 -8.72842C1022.42 -10.8701 1023.43 -12.9887 1024.42 -15.0828L1024.87 -14.8691C1025.86 -16.9641 1026.83 -19.0344 1027.78 -21.0787L1027.33 -21.2897C1028.32 -23.4123 1029.28 -25.5068 1030.23 -27.5714L1030.68 -27.3631C1031.68 -29.5337 1032.65 -31.6713 1033.6 -33.7738L1033.14 -33.9792C1034.09 -36.0807 1035.01 -38.1473 1035.91 -40.1767L1036.37 -39.9742C1037.34 -42.171 1038.29 -44.3244 1039.2 -46.4319L1038.75 -46.6313C1039.69 -48.8039 1040.61 -50.9276 1041.49 -52.9996L1041.95 -52.8033C1042.87 -54.9607 1043.76 -57.0622 1044.61 -59.1046L1044.15 -59.2974C1045.09 -61.5508 1045.99 -63.7322 1046.85 -65.8374L1047.31 -65.6485C1048.2 -67.8191 1049.04 -69.9088 1049.84 -71.9129L1049.37 -72.0977C1050.3 -74.4241 1051.16 -76.635 1051.97 -78.7232L1052.43 -78.5438C1053.32 -80.8552 1054.13 -83.0164 1054.87 -85.0179L1054.4 -85.1905C1055.25 -87.4959 1055.99 -89.5881 1056.64 -91.4522L1057.11 -91.2896C1058.04 -94.0093 1058.76 -96.2464 1059.24 -97.9543L1058.76 -98.0912C1059.2 -99.6434 1059.45 -100.718 1059.5 -101.311C1059.51 -101.362 1059.49 -101.54 1059.04 -101.826C1058.62 -102.098 1057.93 -102.378 1056.95 -102.654L1057.09 -103.135C1055.51 -103.582 1053.3 -103.99 1050.5 -104.36L1050.43 -103.865C1048.48 -104.123 1046.23 -104.364 1043.7 -104.587L1043.74 -105.085C1041.49 -105.283 1039.02 -105.467 1036.34 -105.638L1036.31 -105.139C1034.2 -105.273 1031.95 -105.399 1029.58 -105.517L1029.6 -106.017C1027.38 -106.127 1025.04 -106.23 1022.6 -106.327L1022.58 -105.827C1020.19 -105.921 1017.71 -106.008 1015.12 -106.089L1015.13 -106.588C1013 -106.655 1010.79 -106.717 1008.52 -106.775L1008.51 -106.275C1006.24 -106.333 1003.9 -106.386 1001.49 -106.435L1001.5 -106.935C999.101 -106.984 996.632 -107.029 994.099 -107.069L994.091 -106.569C991.864 -106.605 989.587 -106.638 987.262 -106.667L987.269 -107.167C985.028 -107.195 982.742 -107.22 980.413 -107.243L980.408 -106.743C978.08 -106.765 975.708 -106.785 973.293 -106.801L973.297 -107.301C970.882 -107.318 968.424 -107.332 965.926 -107.343L965.924 -106.843C963.686 -106.853 961.415 -106.86 959.111 -106.866L959.112 -107.366C956.853 -107.371 954.562 -107.374 952.241 -107.375L952.241 -106.875C949.92 -106.876 947.569 -106.875 945.188 -106.872L945.187 -107.372C942.806 -107.369 940.394 -107.364 937.954 -107.357L937.956 -106.857C935.608 -106.85 933.233 -106.841 930.832 -106.831L930.829 -107.331C928.58 -107.321 926.307 -107.309 924.012 -107.296L924.015 -106.796C921.72 -106.783 919.403 -106.769 917.064 -106.752L917.06 -107.252C914.721 -107.236 912.359 -107.218 909.976 -107.199L909.98 -106.699C907.597 -106.68 905.192 -106.659 902.767 -106.637L902.762 -107.137C900.418 -107.115 898.055 -107.092 895.672 -107.068L895.677 -106.568C893.41 -106.545 891.126 -106.52 888.825 -106.495L888.82 -106.995C886.519 -106.969 884.201 -106.942 881.866 -106.914L881.872 -106.414C879.538 -106.386 877.187 -106.357 874.82 -106.326L874.814 -106.826C872.447 -106.796 870.063 -106.764 867.664 -106.731L867.671 -106.232C865.275 -106.199 862.863 -106.165 860.436 -106.13L860.428 -106.63C858.159 -106.597 855.876 -106.563 853.58 -106.528L853.588 -106.028C851.292 -105.994 848.983 -105.958 846.661 -105.921L846.653 -106.421C844.332 -106.384 841.997 -106.347 839.651 -106.308L839.659 -105.808C837.312 -105.77 834.953 -105.73 832.582 -105.69L832.574 -106.189C830.203 -106.149 827.82 -106.108 825.425 -106.065L825.434 -105.565C823.069 -105.523 820.693 -105.481 818.305 -105.437L818.296 -105.937C816.008 -105.895 813.71 -105.853 811.401 -105.809L811.411 -105.31C810.351 -105.29 809.29 -105.27 808.227 -105.249C806.973 -105.225 805.716 -105.201 804.457 -105.177L804.447 -105.677C802.119 -105.632 799.782 -105.586 797.435 -105.54L797.445 -105.04C795.098 -104.994 792.742 -104.946 790.377 -104.898L790.367 -105.398C788.002 -105.35 785.628 -105.302 783.245 -105.252L783.255 -104.752C780.885 -104.703 778.505 -104.653 776.118 -104.603L776.107 -105.103C773.81 -105.054 771.504 -105.004 769.191 -104.954L769.202 -104.455C766.889 -104.405 764.568 -104.354 762.241 -104.303L762.23 -104.803C759.902 -104.751 757.566 -104.699 755.224 -104.647L755.235 -104.147C752.893 -104.094 750.544 -104.041 748.188 -103.987L748.176 -104.487C745.82 -104.434 743.457 -104.379 741.087 -104.324L741.099 -103.824L738.161 -103.756C736.767 -103.723 735.37 -103.691 733.971 -103.658L733.959 -104.158C731.635 -104.103 729.305 -104.047 726.969 -103.992L726.981 -103.492C724.666 -103.436 722.345 -103.381 720.018 -103.324L720.006 -103.824C717.68 -103.768 715.347 -103.711 713.01 -103.653L713.022 -103.153L710.295 -103.086C708.864 -103.051 707.43 -103.015 705.995 -102.979L705.983 -103.479C703.635 -103.421 701.283 -103.362 698.925 -103.302L698.938 -102.803C696.58 -102.743 694.218 -102.683 691.851 -102.623L691.839 -103.123C689.48 -103.062 687.116 -103.002 684.749 -102.941L684.762 -102.441C682.444 -102.381 680.121 -102.321 677.795 -102.26L677.782 -102.76C675.456 -102.699 673.126 -102.638 670.792 -102.576L670.805 -102.076C668.471 -102.015 666.133 -101.953 663.792 -101.89L663.779 -102.39C661.437 -102.328 659.093 -102.265 656.745 -102.202L656.758 -101.702C654.41 -101.639 652.058 -101.575 649.704 -101.511L649.69 -102.011C647.336 -101.947 644.978 -101.882 642.617 -101.817L642.631 -101.318C640.284 -101.253 637.935 -101.188 635.583 -101.123L635.569 -101.623C633.241 -101.559 630.909 -101.494 628.576 -101.429L628.59 -100.929C626.256 -100.864 623.92 -100.798 621.582 -100.732L621.568 -101.232C619.23 -101.166 616.889 -101.1 614.546 -101.033L614.561 -100.533L611.089 -100.435L607.527 -100.333L607.513 -100.833C605.166 -100.765 602.818 -100.698 600.468 -100.63L600.482 -100.13C598.132 -100.063 595.781 -99.9944 593.428 -99.926L593.413 -100.426C591.069 -100.358 588.724 -100.289 586.378 -100.22L586.392 -99.7207C584.055 -99.6523 581.717 -99.5835 579.378 -99.5145L579.363 -100.014C577.024 -99.9453 574.683 -99.876 572.342 -99.8065L572.357 -99.3067C570.016 -99.2372 567.674 -99.1674 565.331 -99.0973L565.316 -99.5971C562.973 -99.527 560.63 -99.4567 558.286 -99.3862L558.301 -98.8864C555.957 -98.8158 553.613 -98.745 551.268 -98.674L551.253 -99.1738C548.908 -99.1027 546.563 -99.0315 544.218 -98.96L544.233 -98.4602C541.888 -98.3888 539.543 -98.317 537.198 -98.2451L537.183 -98.7449C534.838 -98.673 532.494 -98.6009 530.149 -98.5285L530.165 -98.0287L527.47 -97.9455C526.024 -97.9008 524.578 -97.856 523.133 -97.8112L523.117 -98.3109C520.773 -98.2382 518.43 -98.1653 516.088 -98.0922L516.103 -97.5924C513.761 -97.5193 511.419 -97.446 509.078 -97.3725L509.062 -97.8723C506.721 -97.7988 504.381 -97.7252 502.042 -97.6514L502.058 -97.1516C499.719 -97.0778 497.381 -97.0038 495.044 -96.9297L495.028 -97.4294C492.68 -97.3549 490.333 -97.2803 487.987 -97.2055L488.003 -96.7057C485.651 -96.6307 483.3 -96.5556 480.951 -96.4803L480.935 -96.98C478.586 -96.9048 476.238 -96.8293 473.892 -96.7538L473.909 -96.254C471.563 -96.1785 469.219 -96.1028 466.878 -96.027L466.861 -96.5267C464.52 -96.4509 462.18 -96.375 459.842 -96.299L459.859 -95.7992C457.521 -95.7232 455.186 -95.6471 452.853 -95.5708L452.837 -96.0706C450.504 -95.9944 448.173 -95.918 445.846 -95.8416L445.862 -95.3419C443.506 -95.2645 441.153 -95.1871 438.802 -95.1096L438.786 -95.6093C436.427 -95.5315 434.07 -95.4536 431.717 -95.3757L431.734 -94.8759C429.381 -94.798 427.031 -94.72 424.684 -94.6419L424.667 -95.1416C422.321 -95.0635 419.977 -94.9854 417.637 -94.9072L417.654 -94.4075L414.043 -94.2867L410.645 -94.1728L410.629 -94.6725C408.296 -94.5942 405.967 -94.5159 403.642 -94.4376L403.659 -93.9379C401.334 -93.8595 399.013 -93.7812 396.696 -93.7028L396.679 -94.2025C394.306 -94.1222 391.937 -94.0419 389.573 -93.9616L389.59 -93.4619C387.225 -93.3816 384.865 -93.3012 382.51 -93.2209L382.492 -93.7206C380.137 -93.6403 377.787 -93.56 375.441 -93.4796L375.458 -92.9799C373.112 -92.8996 370.772 -92.8193 368.437 -92.7391L368.419 -93.2388C366.084 -93.1585 363.754 -93.0783 361.429 -92.9981L361.446 -92.4984C359.122 -92.4182 356.802 -92.338 354.489 -92.2579L354.472 -92.7576C352.128 -92.6765 349.79 -92.5954 347.458 -92.5143L347.476 -92.0146C345.096 -91.9319 342.723 -91.8493 340.356 -91.7667L340.338 -92.2664C337.971 -92.1839 335.611 -92.1014 333.257 -92.019L333.275 -91.5193C330.921 -91.4369 328.575 -91.3546 326.235 -91.2724L326.217 -91.7721C323.877 -91.6899 321.545 -91.6078 319.219 -91.5258L319.237 -91.0262C316.911 -90.9442 314.593 -90.8623 312.283 -90.7806L312.265 -91.2803C309.954 -91.1985 307.651 -91.1169 305.356 -91.0355L305.373 -90.5358L303.272 -90.4612C301.58 -90.4011 299.893 -90.3411 298.211 -90.2811L298.193 -90.7808C295.813 -90.6961 293.442 -90.6115 291.08 -90.5271L291.098 -90.0274L287.324 -89.8924L284.039 -89.7748L284.022 -90.2744C281.678 -90.1904 279.344 -90.1066 277.019 -90.023L277.037 -89.5233C274.712 -89.4397 272.397 -89.3563 270.091 -89.2731L270.073 -89.7728C267.768 -89.6896 265.472 -89.6067 263.187 -89.524L263.205 -89.0243C260.808 -88.9375 258.422 -88.851 256.048 -88.7648L256.03 -89.2645C253.639 -89.1777 251.26 -89.0912 248.892 -89.0049L248.911 -88.5052C246.543 -88.419 244.188 -88.3331 241.845 -88.2475L241.827 -88.7472C239.484 -88.6616 237.153 -88.5762 234.835 -88.4913L234.853 -87.9916C232.535 -87.9066 230.229 -87.822 227.937 -87.7377L227.918 -88.2374C225.614 -88.1527 223.322 -88.0683 221.044 -87.9843L221.062 -87.4846C218.637 -87.3952 216.227 -87.3062 213.833 -87.2177L213.815 -87.7173C211.42 -87.6288 209.042 -87.5407 206.679 -87.453L206.697 -86.9534C204.334 -86.8657 201.988 -86.7785 199.657 -86.6918L199.639 -87.1915C197.308 -87.1048 194.994 -87.0185 192.697 -86.9328L192.715 -86.4331C190.418 -86.3474 188.137 -86.2622 185.874 -86.1775L185.855 -86.6771C183.462 -86.5876 181.089 -86.4986 178.735 -86.4102L178.754 -85.9106C176.333 -85.8197 173.934 -85.7295 171.555 -85.64L171.536 -86.1396C169.158 -86.0501 166.801 -85.9612 164.466 -85.873L164.485 -85.3734L160.815 -85.2347L157.545 -85.111L157.526 -85.6106C155.235 -85.5238 152.966 -85.4378 150.72 -85.3525L150.739 -84.8529L149.077 -84.7897C147.232 -84.7196 145.402 -84.65 143.589 -84.5809L143.57 -85.0805C141.135 -84.9878 138.729 -84.896 136.352 -84.8052L136.371 -84.3056C134.466 -84.2328 132.579 -84.1606 130.712 -84.0891L129.331 -84.0362L129.312 -84.5358C126.995 -84.447 124.708 -84.3593 122.452 -84.2726L122.471 -83.7729C120.16 -83.6841 117.881 -83.5964 115.636 -83.5099L115.617 -84.0095C113.124 -83.9134 110.672 -83.8188 108.262 -83.7256L108.281 -83.2259L105.275 -83.1096L101.177 -82.9508L101.158 -83.4504C98.8328 -83.3603 96.5503 -83.2716 94.3117 -83.1845L94.3312 -82.6849L90.8747 -82.5504L87.4904 -82.4183L87.4709 -82.918C84.9431 -82.8193 82.4778 -82.723 80.0766 -82.6289L80.0962 -82.1293C77.695 -82.0353 75.3579 -81.9436 73.0866 -81.8544L73.067 -82.354C70.7957 -82.2648 68.5901 -82.178 66.452 -82.0937L66.4717 -81.5941C65.1305 -81.5412 63.8159 -81.4894 62.5282 -81.4385L59.0144 -81.2996L58.9947 -81.7992C56.5473 -81.7024 54.207 -81.6096 51.9769 -81.5211L51.9967 -81.0215C49.6374 -80.9277 47.4014 -80.8388 45.2926 -80.7547L45.2727 -81.2543C42.5759 -81.1468 40.087 -81.0473 37.814 -80.9562L37.834 -80.4566C35.3314 -80.3564 33.0905 -80.2663 31.1219 -80.187L31.1018 -80.6866C28.2176 -80.5705 25.9179 -80.4775 24.2361 -80.4093L24.2564 -79.9097L21.7509 -79.8079L21.1162 -79.782L20.9565 -79.7755L20.9165 -79.7739L20.9065 -79.7734L20.904 -79.7733L20.9031 -79.7733Z" fill="#B58BCF" fill-opacity="0.65" stroke="black" stroke-dasharray="7 7"/>
</svg>
