<svg width="627" height="341" viewBox="0 0 627 341" fill="none" xmlns="http://www.w3.org/2000/svg">
<path d="M8.20901 344.897C7.50133 343.29 6.55441 341.081 5.41634 338.288L5.87938 338.099C5.09968 336.186 4.22997 333.998 3.28578 331.541L2.81907 331.72C2.0372 329.686 1.20441 327.468 0.32946 325.069L0.799183 324.898C0.0371437 322.809 -0.756947 320.582 -1.57726 318.221L-2.04957 318.386C-2.79211 316.248 -3.55609 314.001 -4.3372 311.645L-3.86261 311.488C-4.57973 309.325 -5.31133 307.07 -6.05406 304.725L-6.53073 304.876C-7.22274 302.691 -7.92439 300.428 -8.63299 298.087L-8.15444 297.942C-8.8203 295.743 -9.49231 293.475 -10.1682 291.14L-10.6485 291.279C-11.2901 289.062 -11.9352 286.785 -12.5819 284.448L-12.1 284.314C-12.7171 282.084 -13.3356 279.799 -13.9539 277.461L-14.4373 277.588C-15.0316 275.34 -15.6256 273.043 -16.218 270.696L-15.7332 270.573C-16.3044 268.311 -16.874 266.002 -17.4407 263.648L-17.9268 263.765C-18.4702 261.508 -19.0109 259.21 -19.5479 256.87L-19.0605 256.758C-19.5804 254.492 -20.0968 252.188 -20.6084 249.846L-21.0969 249.953C-21.5961 247.667 -22.0909 245.346 -22.5803 242.988L-22.0908 242.887C-22.567 240.592 -23.0382 238.264 -23.5034 235.902L-23.994 235.998C-24.4437 233.715 -24.8877 231.4 -25.3254 229.053L-24.8338 228.962C-25.2633 226.659 -25.6865 224.327 -26.1028 221.965L-26.5952 222.051C-27.0029 219.738 -27.4039 217.396 -27.7974 215.026L-27.3042 214.944C-27.6862 212.644 -28.0612 210.317 -28.4285 207.963L-28.9225 208.04C-29.2854 205.716 -29.6408 203.365 -29.9881 200.99L-29.4933 200.917C-29.8319 198.602 -30.1627 196.261 -30.4853 193.897L-30.9807 193.965C-31.2977 191.641 -31.6067 189.295 -31.9071 186.925L-31.4111 186.862C-31.7074 184.525 -31.9953 182.166 -32.2743 179.785L-32.7709 179.843C-33.0431 177.521 -33.3068 175.177 -33.5615 172.813L-33.0644 172.759C-33.3173 170.413 -33.5613 168.046 -33.796 165.658L-34.2936 165.707C-34.5225 163.379 -34.7425 161.032 -34.9533 158.666L-34.4552 158.621C-34.6642 156.274 -34.8641 153.909 -35.0543 151.524L-35.5528 151.564C-35.7394 149.225 -35.9168 146.868 -36.0845 144.493L-35.5857 144.458C-35.7516 142.11 -35.908 139.745 -36.0545 137.362L-36.5536 137.393C-36.698 135.046 -36.8328 132.683 -36.9577 130.303L-36.4584 130.277C-36.5816 127.928 -36.6952 125.562 -36.7988 123.181L-37.2983 123.203C-37.4005 120.851 -37.493 118.484 -37.5753 116.101L-37.0756 116.084C-37.1568 113.733 -37.2281 111.367 -37.2891 108.986L-37.789 108.999C-37.8494 106.645 -37.8997 104.276 -37.9398 101.893L-37.4399 101.885C-37.4599 100.694 -37.4773 99.4993 -37.4921 98.3013C-37.5071 97.0841 -37.5007 95.8794 -37.473 94.6872L-37.9728 94.6755C-37.9171 92.2789 -37.7761 89.9318 -37.5522 87.6338L-37.0546 87.6823C-36.8241 85.3164 -36.5052 83.0034 -36.1008 80.7427L-36.593 80.6547C-36.1735 78.3096 -35.6624 76.0201 -35.0626 73.7854L-34.5797 73.915C-33.9657 71.6275 -33.2583 69.3982 -32.4607 67.2264L-32.9301 67.054C-32.1157 64.8364 -31.2077 62.6781 -30.2096 60.5785L-29.758 60.7932C-28.7481 58.6687 -27.6452 56.6048 -26.4529 54.6006L-26.8826 54.3449C-25.6802 52.3237 -24.3874 50.363 -23.0078 48.462L-22.6032 48.7557C-21.2344 46.8696 -19.7795 45.0425 -18.2419 43.2737L-18.6192 42.9457C-17.0849 41.1807 -15.469 39.4738 -13.775 37.8241L-13.4261 38.1823C-11.7613 36.5611 -10.0203 34.9953 -8.20617 33.4842L-8.52618 33.1C-6.74018 31.6123 -4.88416 30.1777 -2.96126 28.7956L-2.66945 29.2017C-0.778515 27.8426 1.1778 26.5342 3.19655 25.2761L2.93209 24.8517C4.89519 23.6283 6.91665 22.4524 8.99374 21.3235L9.23251 21.7628C11.2848 20.6473 13.392 19.5778 15.5514 18.5537L15.3372 18.1019C17.4217 17.1133 19.5544 16.167 21.7329 15.2626L21.9246 15.7244C24.0857 14.8273 26.2923 13.9714 28.542 13.1562L28.3717 12.6861C30.5414 11.9001 32.7507 11.1519 34.9978 10.4414L35.1485 10.9181C37.3792 10.2127 39.6473 9.54434 41.9509 8.91266L41.8186 8.43046C44.0509 7.81833 46.3161 7.2406 48.6123 6.69694L48.7275 7.18349C51.0002 6.64542 53.3036 6.14075 55.6358 5.66915L55.5367 5.17907C57.8173 4.71792 60.1252 4.28837 62.4589 3.89009L62.543 4.38296C64.839 3.99109 67.1602 3.62954 69.5048 3.298L69.4348 2.80293C71.7534 2.47506 74.0947 2.17652 76.4573 1.907L76.514 2.40378C78.8213 2.14056 81.1491 1.90506 83.4958 1.69703L83.4516 1.19898C85.7996 0.990824 88.1664 0.810121 90.5506 0.656599L90.5827 1.15557C92.8939 1.00674 95.2215 0.883493 97.5642 0.785582L97.5434 0.286018C99.8897 0.187953 102.251 0.115267 104.626 0.0677106L104.636 0.56761C106.97 0.520889 109.316 0.498457 111.675 0.500081L111.675 8.0631e-05C114.014 0.00169068 116.365 0.0269209 118.726 0.0755406L118.716 0.575435C121.066 0.623834 123.427 0.695446 125.798 0.790043L125.818 0.290441C128.148 0.383444 130.487 0.498634 132.834 0.635792L132.805 1.13494C135.149 1.27192 137.501 1.43085 139.859 1.6115L139.897 1.11296C142.234 1.29197 144.577 1.49229 146.926 1.7137L146.879 2.21149C149.21 2.4312 151.545 2.67171 153.885 2.93281L153.941 2.43589C156.283 2.69717 158.628 2.97905 160.977 3.28131L160.913 3.77723C163.232 4.07559 165.553 4.39384 167.877 4.73179L167.949 4.23699C170.275 4.57534 172.603 4.93339 174.932 5.31097L174.852 5.80453C177.17 6.18038 179.49 6.5756 181.809 6.98998L181.897 6.49778C184.208 6.9108 186.519 7.34284 188.83 7.79371L188.734 8.28445C191.041 8.73481 193.348 9.20397 195.652 9.69175L195.755 9.20259C198.055 9.68956 200.354 10.1951 202.648 10.7189L202.537 11.2064C204.828 11.7293 207.115 12.2705 209.399 12.8298L209.518 12.3442C211.804 12.9042 214.086 13.4824 216.362 14.0785L216.236 14.5622C218.512 15.1581 220.782 15.7719 223.047 16.4035L223.181 15.9219C225.448 16.5543 227.709 17.2044 229.962 17.872L229.82 18.3514C232.077 19.0203 234.327 19.7068 236.568 20.4108L236.718 19.9337C238.967 20.6403 241.208 21.3644 243.44 22.1058L243.282 22.5803C245.511 23.3209 247.73 24.0789 249.939 24.854L250.105 24.3822C252.336 25.1652 254.557 25.9656 256.765 26.7834L256.592 27.2523C258.799 28.0697 260.995 28.9043 263.178 29.7561L263.36 29.2903C265.555 30.147 267.738 31.021 269.906 31.9121L269.716 32.3746C271.902 33.2728 274.074 34.1884 276.23 35.1212L276.429 34.6623C278.588 35.5963 280.731 36.5474 282.858 37.5156L282.651 37.9707C284.805 38.951 286.941 39.9488 289.06 40.9638L289.276 40.5129C291.406 41.5335 293.518 42.5715 295.61 43.6266L295.385 44.0731C297.486 45.1327 299.567 46.2097 301.628 47.3037L301.862 46.8621C303.96 47.9758 306.035 49.1072 308.088 50.256L307.844 50.6924C309.893 51.8394 311.92 53.0038 313.922 54.1854L314.176 53.7548C316.224 54.9631 318.246 56.1893 320.242 57.4333L319.978 57.8576C321.98 59.1058 323.956 60.3717 325.903 61.6551L326.178 61.2377C328.152 62.5389 330.098 63.8582 332.013 65.1953L331.727 65.6053C333.671 66.963 335.585 68.3389 337.465 69.7329L337.763 69.3312C339.652 70.7317 341.508 72.1504 343.329 73.587L343.02 73.9796C344.891 75.4557 346.726 76.9506 348.523 78.4642L348.845 78.0818C350.646 79.5988 352.408 81.1346 354.131 82.6888L353.796 83.0601C355.563 84.6541 357.288 86.2674 358.969 87.8997L359.317 87.541C361.012 89.187 362.662 90.8524 364.267 92.5369L363.905 92.8817C365.54 94.5986 367.127 96.3352 368.664 98.091L369.04 97.7617C370.599 99.5438 372.108 101.346 373.562 103.168L373.172 103.48C374.647 105.327 376.067 107.194 377.43 109.081L377.835 108.789C379.223 110.71 380.551 112.652 381.818 114.614L381.398 114.885C382.029 115.862 382.645 116.844 383.245 117.831C383.864 118.849 384.487 119.861 385.115 120.868L385.539 120.603C386.793 122.612 388.064 124.599 389.352 126.563L388.934 126.838C390.234 128.821 391.552 130.781 392.886 132.72L393.298 132.436C394.64 134.386 395.998 136.314 397.372 138.219L396.967 138.512C398.354 140.435 399.757 142.336 401.175 144.216L401.574 143.914C402.999 145.803 404.439 147.669 405.894 149.514L405.501 149.823C406.97 151.686 408.453 153.526 409.95 155.345L410.336 155.027C411.838 156.853 413.354 158.657 414.882 160.439L414.503 160.765C416.047 162.566 417.605 164.345 419.175 166.104L419.548 165.771C421.121 167.533 422.706 169.274 424.302 170.995L423.935 171.335C425.55 173.075 427.176 174.794 428.812 176.493L429.172 176.146C430.81 177.846 432.458 179.525 434.115 181.184L433.761 181.538C435.44 183.218 437.128 184.879 438.824 186.519L439.172 186.159C440.87 187.801 442.577 189.423 444.291 191.025L443.949 191.39C445.683 193.011 447.425 194.612 449.173 196.195L449.508 195.824C451.262 197.41 453.021 198.978 454.787 200.526L454.457 200.902C456.239 202.466 458.027 204.01 459.82 205.537L460.144 205.156C461.947 206.691 463.754 208.208 465.565 209.706L465.246 210.092C467.07 211.601 468.897 213.092 470.727 214.566L471.04 214.177C472.887 215.665 474.737 217.135 476.587 218.589L476.279 218.982C478.137 220.442 479.997 221.884 481.857 223.31L482.161 222.913C484.047 224.359 485.934 225.788 487.818 227.201L487.518 227.602C489.414 229.022 491.307 230.426 493.198 231.815L493.494 231.412C495.406 232.816 497.315 234.203 499.221 235.576L498.929 235.982C500.855 237.37 502.778 238.742 504.695 240.1L504.984 239.692C506.914 241.059 508.839 242.411 510.757 243.749L510.471 244.159C512.425 245.522 514.371 246.871 516.309 248.205L516.593 247.793C518.545 249.138 520.489 250.468 522.423 251.786L522.141 252.199C524.105 253.537 526.058 254.862 527.999 256.173L528.279 255.759C530.252 257.093 532.212 258.413 534.158 259.722L533.879 260.137C535.847 261.459 537.8 262.77 539.736 264.069L540.015 263.654C540.358 263.885 540.702 264.115 541.045 264.345C542.676 265.44 544.296 266.526 545.903 267.605L545.624 268.02C547.604 269.35 549.564 270.668 551.502 271.977L551.782 271.562C553.751 272.891 555.698 274.21 557.62 275.519L557.339 275.933C559.313 277.277 561.261 278.612 563.181 279.938L563.466 279.527C565.435 280.887 567.376 282.239 569.285 283.583L568.997 283.992C570.947 285.365 572.865 286.731 574.746 288.09L575.039 287.685C576.97 289.08 578.863 290.468 580.716 291.851L580.417 292.252C582.344 293.69 584.228 295.123 586.064 296.551L586.371 296.157C588.27 297.634 590.119 299.107 591.914 300.579L591.597 300.966C593.454 302.487 595.253 304.005 596.99 305.524L597.319 305.147C599.131 306.73 600.877 308.314 602.553 309.899L602.209 310.263C603.953 311.913 605.621 313.566 607.206 315.224L607.567 314.878C609.235 316.622 610.814 318.372 612.297 320.131L611.915 320.453C613.465 322.291 614.909 324.138 616.243 325.998L616.649 325.707C618.056 327.669 619.341 329.647 620.496 331.645L620.063 331.895C621.257 333.962 622.311 336.048 623.216 338.159L623.676 337.962C624.616 340.154 625.398 342.374 626.012 344.628L625.53 344.759C625.837 345.886 626.101 347.021 626.323 348.164C626.55 349.337 626.556 350.458 626.356 351.532L626.847 351.624C626.455 353.724 625.312 355.67 623.471 357.471L623.121 357.114C621.718 358.487 619.883 359.786 617.631 361.009L617.87 361.448C616.006 362.461 613.873 363.416 611.484 364.317L611.307 363.849C609.238 364.629 606.972 365.368 604.518 366.068L604.655 366.549C602.604 367.134 600.424 367.691 598.122 368.221L598.01 367.734C595.766 368.25 593.404 368.741 590.929 369.207L591.022 369.698C588.891 370.099 586.678 370.482 584.385 370.846L584.306 370.352C582.045 370.712 579.705 371.054 577.29 371.378L577.357 371.874C575.122 372.174 572.824 372.46 570.464 372.732L570.407 372.235C568.172 372.492 565.881 372.736 563.537 372.968L563.586 373.466C561.239 373.698 558.84 373.917 556.389 374.125L556.347 373.627C554.14 373.813 551.891 373.99 549.603 374.157L549.64 374.656C547.357 374.823 545.034 374.98 542.673 375.127L542.642 374.628C540.289 374.776 537.898 374.913 535.47 375.042L535.497 375.541C533.265 375.66 531.003 375.77 528.711 375.874L528.688 375.374C526.398 375.477 524.078 375.573 521.729 375.661L521.748 376.16C519.398 376.249 517.02 376.33 514.615 376.403L514.599 375.904C512.331 375.973 510.038 376.036 507.721 376.093L507.734 376.593C505.447 376.649 503.138 376.7 500.807 376.744L500.797 376.244C498.467 376.288 496.115 376.326 493.743 376.359L493.75 376.859C491.426 376.891 489.082 376.917 486.719 376.938L486.715 376.438C484.438 376.458 482.143 376.473 479.832 376.484L479.834 376.984C477.522 376.994 475.193 376.999 472.848 377L472.848 376.5C470.504 376.501 468.143 376.496 465.768 376.488L465.766 376.988C463.467 376.979 461.153 376.966 458.826 376.949L458.83 376.449C456.534 376.432 454.225 376.411 451.903 376.386L451.898 376.886C449.576 376.861 447.241 376.832 444.894 376.799L444.901 376.299C442.555 376.266 440.197 376.229 437.828 376.188L437.82 376.688C435.525 376.649 433.22 376.606 430.905 376.559L430.915 376.059C428.609 376.013 426.294 375.963 423.969 375.91L423.958 376.41C421.633 376.357 419.299 376.3 416.956 376.24L416.969 375.74C414.627 375.681 412.276 375.618 409.918 375.551L409.904 376.051C407.602 375.987 405.293 375.919 402.978 375.848L402.993 375.349C400.682 375.278 398.364 375.205 396.04 375.129L396.023 375.629C393.699 375.552 391.368 375.473 389.031 375.392L389.049 374.892C386.712 374.81 384.371 374.726 382.023 374.639L382.005 375.138C379.693 375.053 377.377 374.964 375.055 374.874L375.075 374.374C372.76 374.283 370.441 374.19 368.118 374.095L368.097 374.594C365.773 374.499 363.446 374.401 361.115 374.301L361.137 373.801C358.806 373.701 356.473 373.599 354.136 373.494L354.114 373.994C351.793 373.89 349.469 373.783 347.144 373.675L347.167 373.176C344.848 373.068 342.527 372.958 340.204 372.846L340.18 373.345C337.856 373.233 335.532 373.119 333.206 373.003L333.231 372.503C330.905 372.387 328.578 372.27 326.25 372.15L326.225 372.649C323.899 372.529 321.573 372.408 319.246 372.284L319.273 371.785C316.948 371.662 314.624 371.537 312.3 371.41L312.273 371.909C309.948 371.783 307.625 371.654 305.302 371.524L305.33 371.025C303.007 370.895 300.685 370.764 298.365 370.63L298.337 371.13C296.011 370.996 293.687 370.861 291.366 370.725L291.395 370.226C289.063 370.089 286.734 369.95 284.407 369.811L284.377 370.31C282.05 370.17 279.726 370.029 277.405 369.886L277.435 369.387C275.114 369.245 272.797 369.101 270.482 368.956L270.451 369.455C268.131 369.31 265.814 369.163 263.501 369.015L263.533 368.516C261.193 368.367 258.857 368.216 256.526 368.064L256.494 368.563C254.163 368.412 251.837 368.259 249.516 368.105L249.549 367.606C247.228 367.452 244.913 367.298 242.604 367.142L242.571 367.641C240.258 367.485 237.95 367.328 235.65 367.17L235.684 366.671C233.334 366.51 230.991 366.348 228.655 366.186L228.62 366.684C226.284 366.522 223.956 366.358 221.636 366.194L221.671 365.695C219.351 365.531 217.039 365.366 214.736 365.201L214.7 365.699C212.392 365.534 210.092 365.367 207.802 365.2L207.838 364.702C205.478 364.53 203.128 364.357 200.788 364.184L200.751 364.683C198.411 364.51 196.082 364.337 193.764 364.163L193.801 363.664C191.484 363.491 189.177 363.317 186.882 363.143L186.845 363.641C184.532 363.466 182.231 363.29 179.944 363.114L179.982 362.616C177.614 362.434 175.259 362.251 172.919 362.069L172.88 362.568C170.54 362.386 168.215 362.203 165.904 362.021L165.943 361.523C163.633 361.341 161.338 361.159 159.059 360.977L159.019 361.475C156.682 361.289 154.362 361.103 152.06 360.917L152.1 360.419C149.73 360.228 147.379 360.037 145.048 359.847L145.007 360.345C142.676 360.155 140.364 359.965 138.072 359.776L138.113 359.278C135.822 359.088 133.551 358.9 131.301 358.712L131.259 359.211C128.865 359.011 126.494 358.812 124.148 358.614L124.19 358.116C121.834 357.917 119.504 357.72 117.2 357.523L117.157 358.022C114.853 357.825 112.576 357.63 110.325 357.436L110.368 356.938C107.996 356.734 105.654 356.531 103.344 356.33L103.3 356.828C100.921 356.621 98.5749 356.416 96.2644 356.213L96.3082 355.715C93.9978 355.512 91.7227 355.311 89.4843 355.112L89.44 355.61C87.0578 355.398 84.717 355.189 82.4195 354.983L82.4641 354.485C80.0725 354.271 77.7276 354.059 75.4314 353.851L75.3863 354.349C73.09 354.141 70.8423 353.936 68.6452 353.735L68.6908 353.237C66.2378 353.013 63.8478 352.793 61.5235 352.578L61.4774 353.076C59.1114 352.857 56.8134 352.643 54.5862 352.435L54.6327 351.937C52.2314 351.713 49.9124 351.495 47.6792 351.284L47.6322 351.782C45.194 351.552 42.858 351.33 40.6288 351.117L40.6763 350.619C38.2371 350.386 35.9258 350.164 33.7482 349.954L33.7001 350.451C31.2321 350.213 28.9359 349.99 26.8199 349.783L26.8686 349.285C24.2014 349.024 21.8208 348.789 19.744 348.583L19.6946 349.081C16.7601 348.789 14.4322 348.555 12.7593 348.386L12.8097 347.889C11.7883 347.785 11.0113 347.706 10.4897 347.653L9.98167 347.601C9.92062 347.471 9.83659 347.291 9.73071 347.061C9.48718 346.534 9.128 345.743 8.6666 344.695L8.20901 344.897Z" fill="#996DB7" fill-opacity="0.65" stroke="black" stroke-dasharray="7 7"/>
</svg>
