<svg width="46" height="45" viewBox="0 0 46 45" fill="none" xmlns="http://www.w3.org/2000/svg">
<g id="icone relogio" clip-path="url(#clip0_29_151)">
<g id="Group">
<path id="Vector" d="M22.7106 4.47388C33.1631 4.47388 41.636 12.5676 41.636 22.5522C41.636 32.5369 33.1631 40.6306 22.7106 40.6306C12.258 40.6306 3.7851 32.5369 3.7851 22.5522C3.7851 12.5676 12.258 4.47388 22.7106 4.47388ZM22.7106 11.7052C22.2086 11.7052 21.7273 11.8957 21.3723 12.2347C21.0174 12.5738 20.818 13.0336 20.818 13.5131V22.5522C20.8181 23.0317 21.0176 23.4914 21.3725 23.8304L27.0502 29.2539C27.4071 29.5832 27.8852 29.7654 28.3814 29.7613C28.8776 29.7572 29.3523 29.567 29.7032 29.2319C30.0541 28.8967 30.2531 28.4432 30.2574 27.9692C30.2617 27.4952 30.071 27.0386 29.7262 26.6976L24.6031 21.8038V13.5131C24.6031 13.0336 24.4037 12.5738 24.0488 12.2347C23.6939 11.8957 23.2125 11.7052 22.7106 11.7052Z" fill="black"/>
</g>
</g>
<defs>
<clipPath id="clip0_29_151">
<rect width="45.4211" height="43.3881" fill="white" transform="translate(0 0.858154)"/>
</clipPath>
</defs>
</svg>
