<svg width="46" height="44" viewBox="0 0 46 44" fill="none" xmlns="http://www.w3.org/2000/svg">
<g id="icone carta">
<path id="Vector" fill-rule="evenodd" clip-rule="evenodd" d="M6.00316 9.35011C3.78509 11.4671 3.7851 14.8767 3.7851 21.694C3.7851 28.5114 3.78509 31.9209 6.00316 34.0379C8.21933 36.1567 11.7887 36.1567 18.9255 36.1567H26.4957C33.6325 36.1567 37.2018 36.1567 39.418 34.0379C41.636 31.9209 41.636 28.5114 41.636 21.694C41.636 14.8767 41.636 11.4671 39.418 9.35011C37.2018 7.23132 33.6325 7.23132 26.4957 7.23132H18.9255C11.7887 7.23132 8.21933 7.23132 6.00316 9.35011ZM35.156 13.5949C35.3968 13.8711 35.5129 14.2274 35.4789 14.5854C35.4448 14.9434 35.2633 15.2738 34.9743 15.504L30.8182 18.8123C29.1396 20.1501 27.7807 21.2312 26.5789 21.9688C25.3299 22.7371 24.1129 23.2216 22.7106 23.2216C21.3082 23.2216 20.0913 22.7353 18.8403 21.9688C17.6404 21.2312 16.2816 20.1483 14.6029 18.8141L10.4469 15.5058C10.1575 15.2756 9.97569 14.9451 9.94144 14.5869C9.90719 14.2287 10.0233 13.8722 10.2642 13.5958C10.5052 13.3194 10.8512 13.1457 11.2261 13.113C11.6011 13.0803 11.9743 13.1912 12.2637 13.4214L16.3516 16.6736C18.1174 18.0783 19.3418 19.051 20.379 19.6873C21.3801 20.302 22.0595 20.5099 22.7125 20.5099C23.3654 20.5099 24.0448 20.3038 25.046 19.6873C26.0812 19.051 27.3076 18.0783 29.0733 16.6736L33.1593 13.4195C33.4487 13.1897 33.8218 13.0791 34.1966 13.112C34.5714 13.1448 34.9152 13.3186 35.156 13.5949Z" fill="black"/>
</g>
</svg>
