<svg width="56" height="53" viewBox="0 0 56 53" fill="none" xmlns="http://www.w3.org/2000/svg">
<g id="icone linkedin">
<path id="Vector" d="M44.3333 6.625C45.571 6.625 46.758 7.09033 47.6332 7.91861C48.5083 8.7469 49 9.87029 49 11.0417V41.9583C49 43.1297 48.5083 44.2531 47.6332 45.0814C46.758 45.9097 45.571 46.375 44.3333 46.375H11.6667C10.429 46.375 9.242 45.9097 8.36683 45.0814C7.49167 44.2531 7 43.1297 7 41.9583V11.0417C7 9.87029 7.49167 8.7469 8.36683 7.91861C9.242 7.09033 10.429 6.625 11.6667 6.625H44.3333ZM43.1667 40.8542V29.15C43.1667 27.2407 42.3652 25.4095 40.9387 24.0594C39.5122 22.7093 37.5774 21.9508 35.56 21.9508C33.5767 21.9508 31.2667 23.0992 30.1467 24.8217V22.3704H23.6367V40.8542H30.1467V29.9671C30.1467 28.2667 31.5933 26.8754 33.39 26.8754C34.2564 26.8754 35.0873 27.2011 35.6999 27.7809C36.3125 28.3607 36.6567 29.1471 36.6567 29.9671V40.8542H43.1667ZM16.0533 18.9033C17.093 18.9033 18.09 18.5125 18.8252 17.8167C19.5603 17.1209 19.9733 16.1773 19.9733 15.1933C19.9733 13.1396 18.2233 11.4612 16.0533 11.4612C15.0075 11.4612 14.0045 11.8545 13.265 12.5544C12.5255 13.2543 12.11 14.2035 12.11 15.1933C12.11 17.2471 13.8833 18.9033 16.0533 18.9033ZM19.2967 40.8542V22.3704H12.8333V40.8542H19.2967Z" fill="black"/>
</g>
</svg>
