<svg width="46" height="44" viewBox="0 0 46 44" fill="none" xmlns="http://www.w3.org/2000/svg">
<g id="icone localizacao">
<path id="Vector" fill-rule="evenodd" clip-rule="evenodd" d="M22.7106 3.61572C14.3493 3.61572 7.57019 10.8525 7.57019 18.9823C7.57019 27.0489 12.4019 35.8169 19.9418 39.1831C20.8084 39.5707 21.7536 39.7716 22.7106 39.7716C23.6675 39.7716 24.6127 39.5707 25.4794 39.1831C33.0193 35.8169 37.851 27.0489 37.851 18.9823C37.851 10.8525 31.0718 3.61572 22.7106 3.61572ZM22.7106 21.6941C23.7144 21.6941 24.6772 21.3131 25.387 20.6351C26.0969 19.957 26.4957 19.0373 26.4957 18.0784C26.4957 17.1195 26.0969 16.1998 25.387 15.5217C24.6772 14.8437 23.7144 14.4627 22.7106 14.4627C21.7067 14.4627 20.7439 14.8437 20.0341 15.5217C19.3243 16.1998 18.9255 17.1195 18.9255 18.0784C18.9255 19.0373 19.3243 19.957 20.0341 20.6351C20.7439 21.3131 21.7067 21.6941 22.7106 21.6941Z" fill="black"/>
</g>
</svg>
