<svg width="56" height="53" viewBox="0 0 56 53" fill="none" xmlns="http://www.w3.org/2000/svg">
<g id="icone instagram">
<path id="Vector" d="M28.0024 19.875C26.1458 19.875 24.3654 20.5729 23.0526 21.8154C21.7399 23.0578 21.0024 24.7429 21.0024 26.5C21.0024 28.257 21.7399 29.9421 23.0526 31.1845C24.3654 32.427 26.1458 33.125 28.0024 33.125C29.8589 33.125 31.6393 32.427 32.9521 31.1845C34.2649 29.9421 35.0024 28.257 35.0024 26.5C35.0024 24.7429 34.2649 23.0578 32.9521 21.8154C31.6393 20.5729 29.8589 19.875 28.0024 19.875ZM28.0024 15.4583C31.0965 15.4583 34.064 16.6216 36.2519 18.6923C38.4399 20.763 39.669 23.5715 39.669 26.5C39.669 29.4284 38.4399 32.2369 36.2519 34.3076C34.064 36.3783 31.0965 37.5416 28.0024 37.5416C24.9082 37.5416 21.9407 36.3783 19.7528 34.3076C17.5649 32.2369 16.3357 29.4284 16.3357 26.5C16.3357 23.5715 17.5649 20.763 19.7528 18.6923C21.9407 16.6216 24.9082 15.4583 28.0024 15.4583ZM43.169 14.9062C43.169 15.6383 42.8617 16.3404 42.3148 16.8581C41.7678 17.3758 41.0259 17.6666 40.2524 17.6666C39.4788 17.6666 38.7369 17.3758 38.19 16.8581C37.643 16.3404 37.3357 15.6383 37.3357 14.9062C37.3357 14.1741 37.643 13.472 38.19 12.9543C38.7369 12.4366 39.4788 12.1458 40.2524 12.1458C41.0259 12.1458 41.7678 12.4366 42.3148 12.9543C42.8617 13.472 43.169 14.1741 43.169 14.9062ZM28.0024 8.83329C22.2297 8.83329 21.287 8.84875 18.6014 8.96138C16.772 9.04308 15.5447 9.27496 14.406 9.69454C13.4531 10.0257 12.5917 10.5564 11.886 11.247C11.1557 11.9148 10.5942 12.7301 10.2434 13.632C9.80002 14.7141 9.55502 15.8735 9.47102 17.6026C9.34969 20.0406 9.33335 20.893 9.33335 26.5C9.33335 31.9656 9.34969 32.8555 9.46869 35.3973C9.55502 37.1265 9.80002 38.2903 10.241 39.3657C10.6377 40.3263 11.1044 41.0175 11.879 41.7507C12.6654 42.4927 13.3957 42.9366 14.399 43.3032C15.5517 43.725 16.779 43.959 18.599 44.0385C21.175 44.1534 22.0757 44.1666 28 44.1666C33.775 44.1666 34.7154 44.1512 37.401 44.0385C39.2257 43.9568 40.453 43.725 41.594 43.3076C42.5461 42.9748 43.4072 42.4444 44.114 41.7551C44.9004 41.0131 45.3694 40.3219 45.7567 39.3701C46.2 38.2836 46.4474 37.122 46.5314 35.3951C46.6527 32.9593 46.6667 32.1047 46.6667 26.5C46.6667 21.0365 46.6504 20.1444 46.5314 17.6026C46.445 15.8757 46.1977 14.7097 45.7567 13.632C45.405 12.731 44.8445 11.9161 44.1164 11.247C43.4111 10.5555 42.5495 10.024 41.5964 9.69233C40.453 9.27275 39.2257 9.04088 37.401 8.96138C34.8274 8.84654 33.9267 8.83329 28 8.83329M28 4.41663C34.3397 4.41663 35.1307 4.43871 37.6204 4.54913C40.103 4.65954 41.797 5.02833 43.2834 5.576C44.8234 6.13692 46.1207 6.89658 47.418 8.12221C48.6045 9.22615 49.5226 10.5615 50.1084 12.0354C50.6847 13.4421 51.0767 15.0453 51.1934 17.3972C51.303 19.7513 51.3334 20.4999 51.3334 26.5C51.3334 32.5 51.31 33.2486 51.1934 35.6027C51.0767 37.9546 50.6847 39.5556 50.1084 40.9645C49.5242 42.4392 48.6059 43.7749 47.418 44.8777C46.2513 46.0003 44.8404 46.8691 43.2834 47.4239C41.797 47.9694 40.103 48.3404 37.6204 48.4508C35.1307 48.5546 34.3397 48.5833 28 48.5833C21.6604 48.5833 20.8694 48.5612 18.3797 48.4508C15.897 48.3404 14.2054 47.9694 12.7167 47.4239C11.1588 46.8707 9.74758 46.0016 8.58202 44.8777C7.39536 43.7739 6.47726 42.4385 5.89169 40.9645C5.31302 39.5578 4.92335 37.9546 4.80669 35.6027C4.69469 33.2486 4.66669 32.5 4.66669 26.5C4.66669 20.4999 4.69002 19.7513 4.80669 17.3972C4.92335 15.0453 5.31302 13.4443 5.89169 12.0354C6.47557 10.5606 7.3939 9.22488 8.58202 8.12221C9.74792 6.99868 11.159 6.1297 12.7167 5.576C14.203 5.02833 15.8947 4.65954 18.3797 4.54913C20.8717 4.44533 21.6627 4.41663 28.0024 4.41663" fill="black"/>
</g>
</svg>
